<svg xmlns="http://www.w3.org/2000/svg" viewBox="0 0 200 80" width="200" height="80">
  <defs>
    <clipPath id="oC"><circle cx="82" cy="38" r="28"/></clipPath>
  </defs>

  <!-- "e" -->
  <text x="18" y="58" font-family="'Helvetica Neue','Arial',sans-serif"
        font-size="52" font-weight="700" fill="#004D40" opacity="0.92">e</text>

  <!-- "O" with saddle -->
  <circle cx="82" cy="38" r="28" fill="none" stroke="#004D40"
          stroke-width="3.5" stroke-opacity="0.85"/>
  <g clip-path="url(#oC)">
    <path d="M54,68 Q65,68 73,48 Q79,32 82,26 Q85,32 91,48 Q99,68 110,68"
          fill="none" stroke="#004D40" stroke-opacity="0.12" stroke-width="0.8"/>
    <path d="M54,62 Q64,62 72,42 Q78,26 82,20 Q86,26 92,42 Q100,62 110,62"
          fill="none" stroke="#004D40" stroke-opacity="0.22" stroke-width="0.9"/>
    <path d="M54,62 Q64,62 72,42 Q78,26 82,20 Q86,26 92,42 Q100,62 110,62 L110,70 L54,70 Z"
          fill="#004D40" opacity="0.04"/>
    <path d="M60,64 Q68,55 75,40 Q79,28 82,24 Q85,28 89,40 Q96,55 104,64"
          fill="none" stroke="#004D40" stroke-opacity="0.3" stroke-width="0.8"
          stroke-dasharray="2.5,2"/>
    <circle cx="67" cy="56" r="1.3" fill="#004D40" opacity="0.25"/>
    <circle cx="73" cy="44" r="1.4" fill="#004D40" opacity="0.4"/>
    <circle cx="78" cy="30" r="1.5" fill="#004D40" opacity="0.55"/>
    <circle cx="82" cy="24" r="2.5" fill="#FF655D" opacity="0.85"/>
    <circle cx="82" cy="24" r="5.5" fill="none" stroke="#FF655D" stroke-opacity="0.15" stroke-width="0.5"/>
    <circle cx="86" cy="30" r="1.5" fill="#004D40" opacity="0.55"/>
    <circle cx="91" cy="44" r="1.4" fill="#004D40" opacity="0.4"/>
    <circle cx="97" cy="56" r="1.3" fill="#004D40" opacity="0.25"/>
  </g>

  <!-- "n" -->
  <text x="118" y="58" font-family="'Helvetica Neue','Arial',sans-serif"
        font-size="52" font-weight="700" fill="#004D40" opacity="0.92">n</text>
</svg>
